<svg width="83" height="49" viewBox="0 0 83 49" fill="none" xmlns="http://www.w3.org/2000/svg">
<path d="M56.5356 34.1608C56.3658 33.7498 42.2551 5.99746 42.0268 5.61802C41.2836 3.85254 39.9829 2.29786 38.1886 1.25965C33.8035 -1.29107 28.171 0.168744 25.6015 4.52184C23.839 7.50471 23.977 11.0778 25.6546 13.8499C25.8245 14.261 39.33 40.8222 39.5582 41.2069C39.7281 41.618 39.9298 42.0133 40.1634 42.398C40.9067 44.1635 42.2073 45.7181 44.0017 46.7616C48.3867 49.3123 54.0193 47.8525 56.5887 43.4994C58.3512 40.5166 58.2132 36.9434 56.5356 34.1714V34.1608Z" fill="url(#paint0_linear_2801_167)"/>
<path d="M40.243 15.3781C41.7879 13.7444 42.7328 11.5468 42.7328 9.13307C42.7381 4.08959 38.6185 0 33.5381 0C30.4112 0 27.6559 1.54941 25.989 3.91041C25.6864 4.23188 2.77911 32.2582 2.52429 32.6166C0.979444 34.2503 0.0344849 36.448 0.0344849 38.8617C0.0344849 43.9051 4.15408 47.9947 9.23456 47.9947C12.3614 47.9947 15.1167 46.4453 16.7783 44.0843C17.0809 43.7628 39.9882 15.7365 40.243 15.3781Z" fill="url(#paint1_linear_2801_167)"/>
<path d="M79.6659 15.3781C81.2107 13.7444 82.1557 11.5468 82.1557 9.13307C82.1557 4.08959 78.0361 0 72.9556 0C69.8287 0 67.0735 1.54941 65.4065 3.91041C65.1039 4.23188 42.1967 32.2582 41.9418 32.6166C40.397 34.2503 39.452 36.448 39.452 38.8617C39.452 43.9051 43.5716 47.9947 48.6521 47.9947C51.779 47.9947 54.5342 46.4453 56.1958 44.0843C56.4984 43.7628 79.4057 15.7365 79.6606 15.3781H79.6659Z" fill="url(#paint2_linear_2801_167)"/>
<defs>
<linearGradient id="paint0_linear_2801_167" x1="15.309" y1="-28.186" x2="76.4171" y2="27.7288" gradientUnits="userSpaceOnUse">
<stop stop-color="#7756DB"/>
<stop offset="0.760417" stop-color="#3BF4DE"/>
</linearGradient>
<linearGradient id="paint1_linear_2801_167" x1="-11.4669" y1="-28.18" x2="49.1425" y2="42.4982" gradientUnits="userSpaceOnUse">
<stop stop-color="#7756DB"/>
<stop offset="0.760417" stop-color="#3BF4DE"/>
</linearGradient>
<linearGradient id="paint2_linear_2801_167" x1="27.9493" y1="-28.18" x2="88.5574" y2="42.5056" gradientUnits="userSpaceOnUse">
<stop stop-color="#7756DB"/>
<stop offset="0.760417" stop-color="#3BF4DE"/>
</linearGradient>
</defs>
</svg>
